%TF.GenerationSoftware,KiCad,Pcbnew,7.0.8*%
%TF.CreationDate,2023-10-07T13:31:36+02:00*%
%TF.ProjectId,Spannungsregler_(Zusatz),5370616e-6e75-46e6-9773-7265676c6572,rev?*%
%TF.SameCoordinates,Original*%
%TF.FileFunction,Legend,Top*%
%TF.FilePolarity,Positive*%
%FSLAX46Y46*%
G04 Gerber Fmt 4.6, Leading zero omitted, Abs format (unit mm)*
G04 Created by KiCad (PCBNEW 7.0.8) date 2023-10-07 13:31:36*
%MOMM*%
%LPD*%
G01*
G04 APERTURE LIST*
%ADD10C,0.150000*%
%ADD11C,0.120000*%
G04 APERTURE END LIST*
D10*
X107492969Y-97929819D02*
X107016779Y-97929819D01*
X107016779Y-97929819D02*
X106969160Y-98406009D01*
X106969160Y-98406009D02*
X107016779Y-98358390D01*
X107016779Y-98358390D02*
X107112017Y-98310771D01*
X107112017Y-98310771D02*
X107350112Y-98310771D01*
X107350112Y-98310771D02*
X107445350Y-98358390D01*
X107445350Y-98358390D02*
X107492969Y-98406009D01*
X107492969Y-98406009D02*
X107540588Y-98501247D01*
X107540588Y-98501247D02*
X107540588Y-98739342D01*
X107540588Y-98739342D02*
X107492969Y-98834580D01*
X107492969Y-98834580D02*
X107445350Y-98882200D01*
X107445350Y-98882200D02*
X107350112Y-98929819D01*
X107350112Y-98929819D02*
X107112017Y-98929819D01*
X107112017Y-98929819D02*
X107016779Y-98882200D01*
X107016779Y-98882200D02*
X106969160Y-98834580D01*
X107826303Y-97929819D02*
X108159636Y-98929819D01*
X108159636Y-98929819D02*
X108492969Y-97929819D01*
X109588208Y-98929819D02*
X109588208Y-98263152D01*
X109588208Y-98453628D02*
X109635827Y-98358390D01*
X109635827Y-98358390D02*
X109683446Y-98310771D01*
X109683446Y-98310771D02*
X109778684Y-98263152D01*
X109778684Y-98263152D02*
X109873922Y-98263152D01*
X110588208Y-98882200D02*
X110492970Y-98929819D01*
X110492970Y-98929819D02*
X110302494Y-98929819D01*
X110302494Y-98929819D02*
X110207256Y-98882200D01*
X110207256Y-98882200D02*
X110159637Y-98786961D01*
X110159637Y-98786961D02*
X110159637Y-98406009D01*
X110159637Y-98406009D02*
X110207256Y-98310771D01*
X110207256Y-98310771D02*
X110302494Y-98263152D01*
X110302494Y-98263152D02*
X110492970Y-98263152D01*
X110492970Y-98263152D02*
X110588208Y-98310771D01*
X110588208Y-98310771D02*
X110635827Y-98406009D01*
X110635827Y-98406009D02*
X110635827Y-98501247D01*
X110635827Y-98501247D02*
X110159637Y-98596485D01*
X111492970Y-98263152D02*
X111492970Y-99072676D01*
X111492970Y-99072676D02*
X111445351Y-99167914D01*
X111445351Y-99167914D02*
X111397732Y-99215533D01*
X111397732Y-99215533D02*
X111302494Y-99263152D01*
X111302494Y-99263152D02*
X111159637Y-99263152D01*
X111159637Y-99263152D02*
X111064399Y-99215533D01*
X111492970Y-98882200D02*
X111397732Y-98929819D01*
X111397732Y-98929819D02*
X111207256Y-98929819D01*
X111207256Y-98929819D02*
X111112018Y-98882200D01*
X111112018Y-98882200D02*
X111064399Y-98834580D01*
X111064399Y-98834580D02*
X111016780Y-98739342D01*
X111016780Y-98739342D02*
X111016780Y-98453628D01*
X111016780Y-98453628D02*
X111064399Y-98358390D01*
X111064399Y-98358390D02*
X111112018Y-98310771D01*
X111112018Y-98310771D02*
X111207256Y-98263152D01*
X111207256Y-98263152D02*
X111397732Y-98263152D01*
X111397732Y-98263152D02*
X111492970Y-98310771D01*
X112397732Y-98263152D02*
X112397732Y-98929819D01*
X111969161Y-98263152D02*
X111969161Y-98786961D01*
X111969161Y-98786961D02*
X112016780Y-98882200D01*
X112016780Y-98882200D02*
X112112018Y-98929819D01*
X112112018Y-98929819D02*
X112254875Y-98929819D01*
X112254875Y-98929819D02*
X112350113Y-98882200D01*
X112350113Y-98882200D02*
X112397732Y-98834580D01*
X113016780Y-98929819D02*
X112921542Y-98882200D01*
X112921542Y-98882200D02*
X112873923Y-98786961D01*
X112873923Y-98786961D02*
X112873923Y-97929819D01*
X113826304Y-98929819D02*
X113826304Y-98406009D01*
X113826304Y-98406009D02*
X113778685Y-98310771D01*
X113778685Y-98310771D02*
X113683447Y-98263152D01*
X113683447Y-98263152D02*
X113492971Y-98263152D01*
X113492971Y-98263152D02*
X113397733Y-98310771D01*
X113826304Y-98882200D02*
X113731066Y-98929819D01*
X113731066Y-98929819D02*
X113492971Y-98929819D01*
X113492971Y-98929819D02*
X113397733Y-98882200D01*
X113397733Y-98882200D02*
X113350114Y-98786961D01*
X113350114Y-98786961D02*
X113350114Y-98691723D01*
X113350114Y-98691723D02*
X113397733Y-98596485D01*
X113397733Y-98596485D02*
X113492971Y-98548866D01*
X113492971Y-98548866D02*
X113731066Y-98548866D01*
X113731066Y-98548866D02*
X113826304Y-98501247D01*
X114159638Y-98263152D02*
X114540590Y-98263152D01*
X114302495Y-97929819D02*
X114302495Y-98786961D01*
X114302495Y-98786961D02*
X114350114Y-98882200D01*
X114350114Y-98882200D02*
X114445352Y-98929819D01*
X114445352Y-98929819D02*
X114540590Y-98929819D01*
X115254876Y-98882200D02*
X115159638Y-98929819D01*
X115159638Y-98929819D02*
X114969162Y-98929819D01*
X114969162Y-98929819D02*
X114873924Y-98882200D01*
X114873924Y-98882200D02*
X114826305Y-98786961D01*
X114826305Y-98786961D02*
X114826305Y-98406009D01*
X114826305Y-98406009D02*
X114873924Y-98310771D01*
X114873924Y-98310771D02*
X114969162Y-98263152D01*
X114969162Y-98263152D02*
X115159638Y-98263152D01*
X115159638Y-98263152D02*
X115254876Y-98310771D01*
X115254876Y-98310771D02*
X115302495Y-98406009D01*
X115302495Y-98406009D02*
X115302495Y-98501247D01*
X115302495Y-98501247D02*
X114826305Y-98596485D01*
X116159638Y-98929819D02*
X116159638Y-97929819D01*
X116159638Y-98882200D02*
X116064400Y-98929819D01*
X116064400Y-98929819D02*
X115873924Y-98929819D01*
X115873924Y-98929819D02*
X115778686Y-98882200D01*
X115778686Y-98882200D02*
X115731067Y-98834580D01*
X115731067Y-98834580D02*
X115683448Y-98739342D01*
X115683448Y-98739342D02*
X115683448Y-98453628D01*
X115683448Y-98453628D02*
X115731067Y-98358390D01*
X115731067Y-98358390D02*
X115778686Y-98310771D01*
X115778686Y-98310771D02*
X115873924Y-98263152D01*
X115873924Y-98263152D02*
X116064400Y-98263152D01*
X116064400Y-98263152D02*
X116159638Y-98310771D01*
X117540591Y-98929819D02*
X117445353Y-98882200D01*
X117445353Y-98882200D02*
X117397734Y-98834580D01*
X117397734Y-98834580D02*
X117350115Y-98739342D01*
X117350115Y-98739342D02*
X117350115Y-98453628D01*
X117350115Y-98453628D02*
X117397734Y-98358390D01*
X117397734Y-98358390D02*
X117445353Y-98310771D01*
X117445353Y-98310771D02*
X117540591Y-98263152D01*
X117540591Y-98263152D02*
X117683448Y-98263152D01*
X117683448Y-98263152D02*
X117778686Y-98310771D01*
X117778686Y-98310771D02*
X117826305Y-98358390D01*
X117826305Y-98358390D02*
X117873924Y-98453628D01*
X117873924Y-98453628D02*
X117873924Y-98739342D01*
X117873924Y-98739342D02*
X117826305Y-98834580D01*
X117826305Y-98834580D02*
X117778686Y-98882200D01*
X117778686Y-98882200D02*
X117683448Y-98929819D01*
X117683448Y-98929819D02*
X117540591Y-98929819D01*
X118731067Y-98263152D02*
X118731067Y-98929819D01*
X118302496Y-98263152D02*
X118302496Y-98786961D01*
X118302496Y-98786961D02*
X118350115Y-98882200D01*
X118350115Y-98882200D02*
X118445353Y-98929819D01*
X118445353Y-98929819D02*
X118588210Y-98929819D01*
X118588210Y-98929819D02*
X118683448Y-98882200D01*
X118683448Y-98882200D02*
X118731067Y-98834580D01*
X119064401Y-98263152D02*
X119445353Y-98263152D01*
X119207258Y-97929819D02*
X119207258Y-98786961D01*
X119207258Y-98786961D02*
X119254877Y-98882200D01*
X119254877Y-98882200D02*
X119350115Y-98929819D01*
X119350115Y-98929819D02*
X119445353Y-98929819D01*
X119778687Y-98263152D02*
X119778687Y-99263152D01*
X119778687Y-98310771D02*
X119873925Y-98263152D01*
X119873925Y-98263152D02*
X120064401Y-98263152D01*
X120064401Y-98263152D02*
X120159639Y-98310771D01*
X120159639Y-98310771D02*
X120207258Y-98358390D01*
X120207258Y-98358390D02*
X120254877Y-98453628D01*
X120254877Y-98453628D02*
X120254877Y-98739342D01*
X120254877Y-98739342D02*
X120207258Y-98834580D01*
X120207258Y-98834580D02*
X120159639Y-98882200D01*
X120159639Y-98882200D02*
X120064401Y-98929819D01*
X120064401Y-98929819D02*
X119873925Y-98929819D01*
X119873925Y-98929819D02*
X119778687Y-98882200D01*
X121112020Y-98263152D02*
X121112020Y-98929819D01*
X120683449Y-98263152D02*
X120683449Y-98786961D01*
X120683449Y-98786961D02*
X120731068Y-98882200D01*
X120731068Y-98882200D02*
X120826306Y-98929819D01*
X120826306Y-98929819D02*
X120969163Y-98929819D01*
X120969163Y-98929819D02*
X121064401Y-98882200D01*
X121064401Y-98882200D02*
X121112020Y-98834580D01*
X121445354Y-98263152D02*
X121826306Y-98263152D01*
X121588211Y-97929819D02*
X121588211Y-98786961D01*
X121588211Y-98786961D02*
X121635830Y-98882200D01*
X121635830Y-98882200D02*
X121731068Y-98929819D01*
X121731068Y-98929819D02*
X121826306Y-98929819D01*
X117129160Y-91262200D02*
X117272017Y-91309819D01*
X117272017Y-91309819D02*
X117510112Y-91309819D01*
X117510112Y-91309819D02*
X117605350Y-91262200D01*
X117605350Y-91262200D02*
X117652969Y-91214580D01*
X117652969Y-91214580D02*
X117700588Y-91119342D01*
X117700588Y-91119342D02*
X117700588Y-91024104D01*
X117700588Y-91024104D02*
X117652969Y-90928866D01*
X117652969Y-90928866D02*
X117605350Y-90881247D01*
X117605350Y-90881247D02*
X117510112Y-90833628D01*
X117510112Y-90833628D02*
X117319636Y-90786009D01*
X117319636Y-90786009D02*
X117224398Y-90738390D01*
X117224398Y-90738390D02*
X117176779Y-90690771D01*
X117176779Y-90690771D02*
X117129160Y-90595533D01*
X117129160Y-90595533D02*
X117129160Y-90500295D01*
X117129160Y-90500295D02*
X117176779Y-90405057D01*
X117176779Y-90405057D02*
X117224398Y-90357438D01*
X117224398Y-90357438D02*
X117319636Y-90309819D01*
X117319636Y-90309819D02*
X117557731Y-90309819D01*
X117557731Y-90309819D02*
X117700588Y-90357438D01*
X118033922Y-90309819D02*
X118272017Y-91309819D01*
X118272017Y-91309819D02*
X118462493Y-90595533D01*
X118462493Y-90595533D02*
X118652969Y-91309819D01*
X118652969Y-91309819D02*
X118891065Y-90309819D01*
X119795826Y-91309819D02*
X119224398Y-91309819D01*
X119510112Y-91309819D02*
X119510112Y-90309819D01*
X119510112Y-90309819D02*
X119414874Y-90452676D01*
X119414874Y-90452676D02*
X119319636Y-90547914D01*
X119319636Y-90547914D02*
X119224398Y-90595533D01*
X107016779Y-93849819D02*
X107016779Y-92849819D01*
X107350112Y-93183152D02*
X107731064Y-93183152D01*
X107492969Y-93849819D02*
X107492969Y-92992676D01*
X107492969Y-92992676D02*
X107540588Y-92897438D01*
X107540588Y-92897438D02*
X107635826Y-92849819D01*
X107635826Y-92849819D02*
X107731064Y-92849819D01*
X108826303Y-93183152D02*
X108826303Y-93849819D01*
X108826303Y-93278390D02*
X108873922Y-93230771D01*
X108873922Y-93230771D02*
X108969160Y-93183152D01*
X108969160Y-93183152D02*
X109112017Y-93183152D01*
X109112017Y-93183152D02*
X109207255Y-93230771D01*
X109207255Y-93230771D02*
X109254874Y-93326009D01*
X109254874Y-93326009D02*
X109254874Y-93849819D01*
X109873922Y-93849819D02*
X109778684Y-93802200D01*
X109778684Y-93802200D02*
X109731065Y-93754580D01*
X109731065Y-93754580D02*
X109683446Y-93659342D01*
X109683446Y-93659342D02*
X109683446Y-93373628D01*
X109683446Y-93373628D02*
X109731065Y-93278390D01*
X109731065Y-93278390D02*
X109778684Y-93230771D01*
X109778684Y-93230771D02*
X109873922Y-93183152D01*
X109873922Y-93183152D02*
X110016779Y-93183152D01*
X110016779Y-93183152D02*
X110112017Y-93230771D01*
X110112017Y-93230771D02*
X110159636Y-93278390D01*
X110159636Y-93278390D02*
X110207255Y-93373628D01*
X110207255Y-93373628D02*
X110207255Y-93659342D01*
X110207255Y-93659342D02*
X110159636Y-93754580D01*
X110159636Y-93754580D02*
X110112017Y-93802200D01*
X110112017Y-93802200D02*
X110016779Y-93849819D01*
X110016779Y-93849819D02*
X109873922Y-93849819D01*
X111350113Y-93802200D02*
X111492970Y-93849819D01*
X111492970Y-93849819D02*
X111731065Y-93849819D01*
X111731065Y-93849819D02*
X111826303Y-93802200D01*
X111826303Y-93802200D02*
X111873922Y-93754580D01*
X111873922Y-93754580D02*
X111921541Y-93659342D01*
X111921541Y-93659342D02*
X111921541Y-93564104D01*
X111921541Y-93564104D02*
X111873922Y-93468866D01*
X111873922Y-93468866D02*
X111826303Y-93421247D01*
X111826303Y-93421247D02*
X111731065Y-93373628D01*
X111731065Y-93373628D02*
X111540589Y-93326009D01*
X111540589Y-93326009D02*
X111445351Y-93278390D01*
X111445351Y-93278390D02*
X111397732Y-93230771D01*
X111397732Y-93230771D02*
X111350113Y-93135533D01*
X111350113Y-93135533D02*
X111350113Y-93040295D01*
X111350113Y-93040295D02*
X111397732Y-92945057D01*
X111397732Y-92945057D02*
X111445351Y-92897438D01*
X111445351Y-92897438D02*
X111540589Y-92849819D01*
X111540589Y-92849819D02*
X111778684Y-92849819D01*
X111778684Y-92849819D02*
X111921541Y-92897438D01*
X112254875Y-93183152D02*
X112445351Y-93849819D01*
X112445351Y-93849819D02*
X112635827Y-93373628D01*
X112635827Y-93373628D02*
X112826303Y-93849819D01*
X112826303Y-93849819D02*
X113016779Y-93183152D01*
X113397732Y-93849819D02*
X113397732Y-93183152D01*
X113397732Y-92849819D02*
X113350113Y-92897438D01*
X113350113Y-92897438D02*
X113397732Y-92945057D01*
X113397732Y-92945057D02*
X113445351Y-92897438D01*
X113445351Y-92897438D02*
X113397732Y-92849819D01*
X113397732Y-92849819D02*
X113397732Y-92945057D01*
X113731065Y-93183152D02*
X114112017Y-93183152D01*
X113873922Y-92849819D02*
X113873922Y-93706961D01*
X113873922Y-93706961D02*
X113921541Y-93802200D01*
X113921541Y-93802200D02*
X114016779Y-93849819D01*
X114016779Y-93849819D02*
X114112017Y-93849819D01*
X114873922Y-93802200D02*
X114778684Y-93849819D01*
X114778684Y-93849819D02*
X114588208Y-93849819D01*
X114588208Y-93849819D02*
X114492970Y-93802200D01*
X114492970Y-93802200D02*
X114445351Y-93754580D01*
X114445351Y-93754580D02*
X114397732Y-93659342D01*
X114397732Y-93659342D02*
X114397732Y-93373628D01*
X114397732Y-93373628D02*
X114445351Y-93278390D01*
X114445351Y-93278390D02*
X114492970Y-93230771D01*
X114492970Y-93230771D02*
X114588208Y-93183152D01*
X114588208Y-93183152D02*
X114778684Y-93183152D01*
X114778684Y-93183152D02*
X114873922Y-93230771D01*
X115302494Y-93849819D02*
X115302494Y-92849819D01*
X115731065Y-93849819D02*
X115731065Y-93326009D01*
X115731065Y-93326009D02*
X115683446Y-93230771D01*
X115683446Y-93230771D02*
X115588208Y-93183152D01*
X115588208Y-93183152D02*
X115445351Y-93183152D01*
X115445351Y-93183152D02*
X115350113Y-93230771D01*
X115350113Y-93230771D02*
X115302494Y-93278390D01*
X116969161Y-93183152D02*
X116969161Y-93849819D01*
X116969161Y-93278390D02*
X117016780Y-93230771D01*
X117016780Y-93230771D02*
X117112018Y-93183152D01*
X117112018Y-93183152D02*
X117254875Y-93183152D01*
X117254875Y-93183152D02*
X117350113Y-93230771D01*
X117350113Y-93230771D02*
X117397732Y-93326009D01*
X117397732Y-93326009D02*
X117397732Y-93849819D01*
X118254875Y-93802200D02*
X118159637Y-93849819D01*
X118159637Y-93849819D02*
X117969161Y-93849819D01*
X117969161Y-93849819D02*
X117873923Y-93802200D01*
X117873923Y-93802200D02*
X117826304Y-93706961D01*
X117826304Y-93706961D02*
X117826304Y-93326009D01*
X117826304Y-93326009D02*
X117873923Y-93230771D01*
X117873923Y-93230771D02*
X117969161Y-93183152D01*
X117969161Y-93183152D02*
X118159637Y-93183152D01*
X118159637Y-93183152D02*
X118254875Y-93230771D01*
X118254875Y-93230771D02*
X118302494Y-93326009D01*
X118302494Y-93326009D02*
X118302494Y-93421247D01*
X118302494Y-93421247D02*
X117826304Y-93516485D01*
X119112018Y-93802200D02*
X119016780Y-93849819D01*
X119016780Y-93849819D02*
X118826304Y-93849819D01*
X118826304Y-93849819D02*
X118731066Y-93802200D01*
X118731066Y-93802200D02*
X118683447Y-93706961D01*
X118683447Y-93706961D02*
X118683447Y-93326009D01*
X118683447Y-93326009D02*
X118731066Y-93230771D01*
X118731066Y-93230771D02*
X118826304Y-93183152D01*
X118826304Y-93183152D02*
X119016780Y-93183152D01*
X119016780Y-93183152D02*
X119112018Y-93230771D01*
X119112018Y-93230771D02*
X119159637Y-93326009D01*
X119159637Y-93326009D02*
X119159637Y-93421247D01*
X119159637Y-93421247D02*
X118683447Y-93516485D01*
X120016780Y-93849819D02*
X120016780Y-92849819D01*
X120016780Y-93802200D02*
X119921542Y-93849819D01*
X119921542Y-93849819D02*
X119731066Y-93849819D01*
X119731066Y-93849819D02*
X119635828Y-93802200D01*
X119635828Y-93802200D02*
X119588209Y-93754580D01*
X119588209Y-93754580D02*
X119540590Y-93659342D01*
X119540590Y-93659342D02*
X119540590Y-93373628D01*
X119540590Y-93373628D02*
X119588209Y-93278390D01*
X119588209Y-93278390D02*
X119635828Y-93230771D01*
X119635828Y-93230771D02*
X119731066Y-93183152D01*
X119731066Y-93183152D02*
X119921542Y-93183152D01*
X119921542Y-93183152D02*
X120016780Y-93230771D01*
X120873923Y-93802200D02*
X120778685Y-93849819D01*
X120778685Y-93849819D02*
X120588209Y-93849819D01*
X120588209Y-93849819D02*
X120492971Y-93802200D01*
X120492971Y-93802200D02*
X120445352Y-93706961D01*
X120445352Y-93706961D02*
X120445352Y-93326009D01*
X120445352Y-93326009D02*
X120492971Y-93230771D01*
X120492971Y-93230771D02*
X120588209Y-93183152D01*
X120588209Y-93183152D02*
X120778685Y-93183152D01*
X120778685Y-93183152D02*
X120873923Y-93230771D01*
X120873923Y-93230771D02*
X120921542Y-93326009D01*
X120921542Y-93326009D02*
X120921542Y-93421247D01*
X120921542Y-93421247D02*
X120445352Y-93516485D01*
X121778685Y-93849819D02*
X121778685Y-92849819D01*
X121778685Y-93802200D02*
X121683447Y-93849819D01*
X121683447Y-93849819D02*
X121492971Y-93849819D01*
X121492971Y-93849819D02*
X121397733Y-93802200D01*
X121397733Y-93802200D02*
X121350114Y-93754580D01*
X121350114Y-93754580D02*
X121302495Y-93659342D01*
X121302495Y-93659342D02*
X121302495Y-93373628D01*
X121302495Y-93373628D02*
X121350114Y-93278390D01*
X121350114Y-93278390D02*
X121397733Y-93230771D01*
X121397733Y-93230771D02*
X121492971Y-93183152D01*
X121492971Y-93183152D02*
X121683447Y-93183152D01*
X121683447Y-93183152D02*
X121778685Y-93230771D01*
X122302495Y-93802200D02*
X122302495Y-93849819D01*
X122302495Y-93849819D02*
X122254876Y-93945057D01*
X122254876Y-93945057D02*
X122207257Y-93992676D01*
X123445352Y-93802200D02*
X123540590Y-93849819D01*
X123540590Y-93849819D02*
X123731066Y-93849819D01*
X123731066Y-93849819D02*
X123826304Y-93802200D01*
X123826304Y-93802200D02*
X123873923Y-93706961D01*
X123873923Y-93706961D02*
X123873923Y-93659342D01*
X123873923Y-93659342D02*
X123826304Y-93564104D01*
X123826304Y-93564104D02*
X123731066Y-93516485D01*
X123731066Y-93516485D02*
X123588209Y-93516485D01*
X123588209Y-93516485D02*
X123492971Y-93468866D01*
X123492971Y-93468866D02*
X123445352Y-93373628D01*
X123445352Y-93373628D02*
X123445352Y-93326009D01*
X123445352Y-93326009D02*
X123492971Y-93230771D01*
X123492971Y-93230771D02*
X123588209Y-93183152D01*
X123588209Y-93183152D02*
X123731066Y-93183152D01*
X123731066Y-93183152D02*
X123826304Y-93230771D01*
X124302495Y-93849819D02*
X124302495Y-92849819D01*
X124731066Y-93849819D02*
X124731066Y-93326009D01*
X124731066Y-93326009D02*
X124683447Y-93230771D01*
X124683447Y-93230771D02*
X124588209Y-93183152D01*
X124588209Y-93183152D02*
X124445352Y-93183152D01*
X124445352Y-93183152D02*
X124350114Y-93230771D01*
X124350114Y-93230771D02*
X124302495Y-93278390D01*
X125350114Y-93849819D02*
X125254876Y-93802200D01*
X125254876Y-93802200D02*
X125207257Y-93754580D01*
X125207257Y-93754580D02*
X125159638Y-93659342D01*
X125159638Y-93659342D02*
X125159638Y-93373628D01*
X125159638Y-93373628D02*
X125207257Y-93278390D01*
X125207257Y-93278390D02*
X125254876Y-93230771D01*
X125254876Y-93230771D02*
X125350114Y-93183152D01*
X125350114Y-93183152D02*
X125492971Y-93183152D01*
X125492971Y-93183152D02*
X125588209Y-93230771D01*
X125588209Y-93230771D02*
X125635828Y-93278390D01*
X125635828Y-93278390D02*
X125683447Y-93373628D01*
X125683447Y-93373628D02*
X125683447Y-93659342D01*
X125683447Y-93659342D02*
X125635828Y-93754580D01*
X125635828Y-93754580D02*
X125588209Y-93802200D01*
X125588209Y-93802200D02*
X125492971Y-93849819D01*
X125492971Y-93849819D02*
X125350114Y-93849819D01*
X126112019Y-93849819D02*
X126112019Y-93183152D01*
X126112019Y-93373628D02*
X126159638Y-93278390D01*
X126159638Y-93278390D02*
X126207257Y-93230771D01*
X126207257Y-93230771D02*
X126302495Y-93183152D01*
X126302495Y-93183152D02*
X126397733Y-93183152D01*
X126588210Y-93183152D02*
X126969162Y-93183152D01*
X126731067Y-92849819D02*
X126731067Y-93706961D01*
X126731067Y-93706961D02*
X126778686Y-93802200D01*
X126778686Y-93802200D02*
X126873924Y-93849819D01*
X126873924Y-93849819D02*
X126969162Y-93849819D01*
X128016782Y-93802200D02*
X128159639Y-93849819D01*
X128159639Y-93849819D02*
X128397734Y-93849819D01*
X128397734Y-93849819D02*
X128492972Y-93802200D01*
X128492972Y-93802200D02*
X128540591Y-93754580D01*
X128540591Y-93754580D02*
X128588210Y-93659342D01*
X128588210Y-93659342D02*
X128588210Y-93564104D01*
X128588210Y-93564104D02*
X128540591Y-93468866D01*
X128540591Y-93468866D02*
X128492972Y-93421247D01*
X128492972Y-93421247D02*
X128397734Y-93373628D01*
X128397734Y-93373628D02*
X128207258Y-93326009D01*
X128207258Y-93326009D02*
X128112020Y-93278390D01*
X128112020Y-93278390D02*
X128064401Y-93230771D01*
X128064401Y-93230771D02*
X128016782Y-93135533D01*
X128016782Y-93135533D02*
X128016782Y-93040295D01*
X128016782Y-93040295D02*
X128064401Y-92945057D01*
X128064401Y-92945057D02*
X128112020Y-92897438D01*
X128112020Y-92897438D02*
X128207258Y-92849819D01*
X128207258Y-92849819D02*
X128445353Y-92849819D01*
X128445353Y-92849819D02*
X128588210Y-92897438D01*
X128921544Y-92849819D02*
X129159639Y-93849819D01*
X129159639Y-93849819D02*
X129350115Y-93135533D01*
X129350115Y-93135533D02*
X129540591Y-93849819D01*
X129540591Y-93849819D02*
X129778687Y-92849819D01*
X130683448Y-93849819D02*
X130112020Y-93849819D01*
X130397734Y-93849819D02*
X130397734Y-92849819D01*
X130397734Y-92849819D02*
X130302496Y-92992676D01*
X130302496Y-92992676D02*
X130207258Y-93087914D01*
X130207258Y-93087914D02*
X130112020Y-93135533D01*
X145307255Y-90309819D02*
X145497731Y-90309819D01*
X145497731Y-90309819D02*
X145592969Y-90357438D01*
X145592969Y-90357438D02*
X145688207Y-90452676D01*
X145688207Y-90452676D02*
X145735826Y-90643152D01*
X145735826Y-90643152D02*
X145735826Y-90976485D01*
X145735826Y-90976485D02*
X145688207Y-91166961D01*
X145688207Y-91166961D02*
X145592969Y-91262200D01*
X145592969Y-91262200D02*
X145497731Y-91309819D01*
X145497731Y-91309819D02*
X145307255Y-91309819D01*
X145307255Y-91309819D02*
X145212017Y-91262200D01*
X145212017Y-91262200D02*
X145116779Y-91166961D01*
X145116779Y-91166961D02*
X145069160Y-90976485D01*
X145069160Y-90976485D02*
X145069160Y-90643152D01*
X145069160Y-90643152D02*
X145116779Y-90452676D01*
X145116779Y-90452676D02*
X145212017Y-90357438D01*
X145212017Y-90357438D02*
X145307255Y-90309819D01*
X146592969Y-90643152D02*
X146592969Y-91309819D01*
X146164398Y-90643152D02*
X146164398Y-91166961D01*
X146164398Y-91166961D02*
X146212017Y-91262200D01*
X146212017Y-91262200D02*
X146307255Y-91309819D01*
X146307255Y-91309819D02*
X146450112Y-91309819D01*
X146450112Y-91309819D02*
X146545350Y-91262200D01*
X146545350Y-91262200D02*
X146592969Y-91214580D01*
X146926303Y-90643152D02*
X147307255Y-90643152D01*
X147069160Y-90309819D02*
X147069160Y-91166961D01*
X147069160Y-91166961D02*
X147116779Y-91262200D01*
X147116779Y-91262200D02*
X147212017Y-91309819D01*
X147212017Y-91309819D02*
X147307255Y-91309819D01*
X147640589Y-90643152D02*
X147640589Y-91643152D01*
X147640589Y-90690771D02*
X147735827Y-90643152D01*
X147735827Y-90643152D02*
X147926303Y-90643152D01*
X147926303Y-90643152D02*
X148021541Y-90690771D01*
X148021541Y-90690771D02*
X148069160Y-90738390D01*
X148069160Y-90738390D02*
X148116779Y-90833628D01*
X148116779Y-90833628D02*
X148116779Y-91119342D01*
X148116779Y-91119342D02*
X148069160Y-91214580D01*
X148069160Y-91214580D02*
X148021541Y-91262200D01*
X148021541Y-91262200D02*
X147926303Y-91309819D01*
X147926303Y-91309819D02*
X147735827Y-91309819D01*
X147735827Y-91309819D02*
X147640589Y-91262200D01*
X148973922Y-90643152D02*
X148973922Y-91309819D01*
X148545351Y-90643152D02*
X148545351Y-91166961D01*
X148545351Y-91166961D02*
X148592970Y-91262200D01*
X148592970Y-91262200D02*
X148688208Y-91309819D01*
X148688208Y-91309819D02*
X148831065Y-91309819D01*
X148831065Y-91309819D02*
X148926303Y-91262200D01*
X148926303Y-91262200D02*
X148973922Y-91214580D01*
X149307256Y-90643152D02*
X149688208Y-90643152D01*
X149450113Y-90309819D02*
X149450113Y-91166961D01*
X149450113Y-91166961D02*
X149497732Y-91262200D01*
X149497732Y-91262200D02*
X149592970Y-91309819D01*
X149592970Y-91309819D02*
X149688208Y-91309819D01*
X96856779Y-91309819D02*
X96856779Y-90309819D01*
X97332969Y-90643152D02*
X97332969Y-91309819D01*
X97332969Y-90738390D02*
X97380588Y-90690771D01*
X97380588Y-90690771D02*
X97475826Y-90643152D01*
X97475826Y-90643152D02*
X97618683Y-90643152D01*
X97618683Y-90643152D02*
X97713921Y-90690771D01*
X97713921Y-90690771D02*
X97761540Y-90786009D01*
X97761540Y-90786009D02*
X97761540Y-91309819D01*
X98237731Y-90643152D02*
X98237731Y-91643152D01*
X98237731Y-90690771D02*
X98332969Y-90643152D01*
X98332969Y-90643152D02*
X98523445Y-90643152D01*
X98523445Y-90643152D02*
X98618683Y-90690771D01*
X98618683Y-90690771D02*
X98666302Y-90738390D01*
X98666302Y-90738390D02*
X98713921Y-90833628D01*
X98713921Y-90833628D02*
X98713921Y-91119342D01*
X98713921Y-91119342D02*
X98666302Y-91214580D01*
X98666302Y-91214580D02*
X98618683Y-91262200D01*
X98618683Y-91262200D02*
X98523445Y-91309819D01*
X98523445Y-91309819D02*
X98332969Y-91309819D01*
X98332969Y-91309819D02*
X98237731Y-91262200D01*
X99571064Y-90643152D02*
X99571064Y-91309819D01*
X99142493Y-90643152D02*
X99142493Y-91166961D01*
X99142493Y-91166961D02*
X99190112Y-91262200D01*
X99190112Y-91262200D02*
X99285350Y-91309819D01*
X99285350Y-91309819D02*
X99428207Y-91309819D01*
X99428207Y-91309819D02*
X99523445Y-91262200D01*
X99523445Y-91262200D02*
X99571064Y-91214580D01*
X99904398Y-90643152D02*
X100285350Y-90643152D01*
X100047255Y-90309819D02*
X100047255Y-91166961D01*
X100047255Y-91166961D02*
X100094874Y-91262200D01*
X100094874Y-91262200D02*
X100190112Y-91309819D01*
X100190112Y-91309819D02*
X100285350Y-91309819D01*
X107016779Y-96389819D02*
X107016779Y-95389819D01*
X107016779Y-95389819D02*
X107350112Y-96104104D01*
X107350112Y-96104104D02*
X107683445Y-95389819D01*
X107683445Y-95389819D02*
X107683445Y-96389819D01*
X108588207Y-96389819D02*
X108588207Y-95866009D01*
X108588207Y-95866009D02*
X108540588Y-95770771D01*
X108540588Y-95770771D02*
X108445350Y-95723152D01*
X108445350Y-95723152D02*
X108254874Y-95723152D01*
X108254874Y-95723152D02*
X108159636Y-95770771D01*
X108588207Y-96342200D02*
X108492969Y-96389819D01*
X108492969Y-96389819D02*
X108254874Y-96389819D01*
X108254874Y-96389819D02*
X108159636Y-96342200D01*
X108159636Y-96342200D02*
X108112017Y-96246961D01*
X108112017Y-96246961D02*
X108112017Y-96151723D01*
X108112017Y-96151723D02*
X108159636Y-96056485D01*
X108159636Y-96056485D02*
X108254874Y-96008866D01*
X108254874Y-96008866D02*
X108492969Y-96008866D01*
X108492969Y-96008866D02*
X108588207Y-95961247D01*
X108969160Y-96389819D02*
X109492969Y-95723152D01*
X108969160Y-95723152D02*
X109492969Y-96389819D01*
X110540589Y-95389819D02*
X111159636Y-95389819D01*
X111159636Y-95389819D02*
X110826303Y-95770771D01*
X110826303Y-95770771D02*
X110969160Y-95770771D01*
X110969160Y-95770771D02*
X111064398Y-95818390D01*
X111064398Y-95818390D02*
X111112017Y-95866009D01*
X111112017Y-95866009D02*
X111159636Y-95961247D01*
X111159636Y-95961247D02*
X111159636Y-96199342D01*
X111159636Y-96199342D02*
X111112017Y-96294580D01*
X111112017Y-96294580D02*
X111064398Y-96342200D01*
X111064398Y-96342200D02*
X110969160Y-96389819D01*
X110969160Y-96389819D02*
X110683446Y-96389819D01*
X110683446Y-96389819D02*
X110588208Y-96342200D01*
X110588208Y-96342200D02*
X110540589Y-96294580D01*
X112064398Y-95389819D02*
X111588208Y-95389819D01*
X111588208Y-95389819D02*
X111540589Y-95866009D01*
X111540589Y-95866009D02*
X111588208Y-95818390D01*
X111588208Y-95818390D02*
X111683446Y-95770771D01*
X111683446Y-95770771D02*
X111921541Y-95770771D01*
X111921541Y-95770771D02*
X112016779Y-95818390D01*
X112016779Y-95818390D02*
X112064398Y-95866009D01*
X112064398Y-95866009D02*
X112112017Y-95961247D01*
X112112017Y-95961247D02*
X112112017Y-96199342D01*
X112112017Y-96199342D02*
X112064398Y-96294580D01*
X112064398Y-96294580D02*
X112016779Y-96342200D01*
X112016779Y-96342200D02*
X111921541Y-96389819D01*
X111921541Y-96389819D02*
X111683446Y-96389819D01*
X111683446Y-96389819D02*
X111588208Y-96342200D01*
X111588208Y-96342200D02*
X111540589Y-96294580D01*
X112397732Y-95389819D02*
X112731065Y-96389819D01*
X112731065Y-96389819D02*
X113064398Y-95389819D01*
X114683446Y-96389819D02*
X114112018Y-96389819D01*
X114397732Y-96389819D02*
X114397732Y-95389819D01*
X114397732Y-95389819D02*
X114302494Y-95532676D01*
X114302494Y-95532676D02*
X114207256Y-95627914D01*
X114207256Y-95627914D02*
X114112018Y-95675533D01*
X115112018Y-96294580D02*
X115159637Y-96342200D01*
X115159637Y-96342200D02*
X115112018Y-96389819D01*
X115112018Y-96389819D02*
X115064399Y-96342200D01*
X115064399Y-96342200D02*
X115112018Y-96294580D01*
X115112018Y-96294580D02*
X115112018Y-96389819D01*
X116064398Y-95389819D02*
X115588208Y-95389819D01*
X115588208Y-95389819D02*
X115540589Y-95866009D01*
X115540589Y-95866009D02*
X115588208Y-95818390D01*
X115588208Y-95818390D02*
X115683446Y-95770771D01*
X115683446Y-95770771D02*
X115921541Y-95770771D01*
X115921541Y-95770771D02*
X116016779Y-95818390D01*
X116016779Y-95818390D02*
X116064398Y-95866009D01*
X116064398Y-95866009D02*
X116112017Y-95961247D01*
X116112017Y-95961247D02*
X116112017Y-96199342D01*
X116112017Y-96199342D02*
X116064398Y-96294580D01*
X116064398Y-96294580D02*
X116016779Y-96342200D01*
X116016779Y-96342200D02*
X115921541Y-96389819D01*
X115921541Y-96389819D02*
X115683446Y-96389819D01*
X115683446Y-96389819D02*
X115588208Y-96342200D01*
X115588208Y-96342200D02*
X115540589Y-96294580D01*
X116492970Y-96104104D02*
X116969160Y-96104104D01*
X116397732Y-96389819D02*
X116731065Y-95389819D01*
X116731065Y-95389819D02*
X117064398Y-96389819D01*
X118159637Y-96389819D02*
X118159637Y-95723152D01*
X118159637Y-95389819D02*
X118112018Y-95437438D01*
X118112018Y-95437438D02*
X118159637Y-95485057D01*
X118159637Y-95485057D02*
X118207256Y-95437438D01*
X118207256Y-95437438D02*
X118159637Y-95389819D01*
X118159637Y-95389819D02*
X118159637Y-95485057D01*
X118635827Y-95723152D02*
X118635827Y-96389819D01*
X118635827Y-95818390D02*
X118683446Y-95770771D01*
X118683446Y-95770771D02*
X118778684Y-95723152D01*
X118778684Y-95723152D02*
X118921541Y-95723152D01*
X118921541Y-95723152D02*
X119016779Y-95770771D01*
X119016779Y-95770771D02*
X119064398Y-95866009D01*
X119064398Y-95866009D02*
X119064398Y-96389819D01*
X119540589Y-95723152D02*
X119540589Y-96723152D01*
X119540589Y-95770771D02*
X119635827Y-95723152D01*
X119635827Y-95723152D02*
X119826303Y-95723152D01*
X119826303Y-95723152D02*
X119921541Y-95770771D01*
X119921541Y-95770771D02*
X119969160Y-95818390D01*
X119969160Y-95818390D02*
X120016779Y-95913628D01*
X120016779Y-95913628D02*
X120016779Y-96199342D01*
X120016779Y-96199342D02*
X119969160Y-96294580D01*
X119969160Y-96294580D02*
X119921541Y-96342200D01*
X119921541Y-96342200D02*
X119826303Y-96389819D01*
X119826303Y-96389819D02*
X119635827Y-96389819D01*
X119635827Y-96389819D02*
X119540589Y-96342200D01*
X120873922Y-95723152D02*
X120873922Y-96389819D01*
X120445351Y-95723152D02*
X120445351Y-96246961D01*
X120445351Y-96246961D02*
X120492970Y-96342200D01*
X120492970Y-96342200D02*
X120588208Y-96389819D01*
X120588208Y-96389819D02*
X120731065Y-96389819D01*
X120731065Y-96389819D02*
X120826303Y-96342200D01*
X120826303Y-96342200D02*
X120873922Y-96294580D01*
X121207256Y-95723152D02*
X121588208Y-95723152D01*
X121350113Y-95389819D02*
X121350113Y-96246961D01*
X121350113Y-96246961D02*
X121397732Y-96342200D01*
X121397732Y-96342200D02*
X121492970Y-96389819D01*
X121492970Y-96389819D02*
X121588208Y-96389819D01*
X114970112Y-65386009D02*
X114636779Y-65386009D01*
X114636779Y-65909819D02*
X114636779Y-64909819D01*
X114636779Y-64909819D02*
X115112969Y-64909819D01*
X115493922Y-65909819D02*
X115493922Y-65243152D01*
X115493922Y-64909819D02*
X115446303Y-64957438D01*
X115446303Y-64957438D02*
X115493922Y-65005057D01*
X115493922Y-65005057D02*
X115541541Y-64957438D01*
X115541541Y-64957438D02*
X115493922Y-64909819D01*
X115493922Y-64909819D02*
X115493922Y-65005057D01*
X115874874Y-65909819D02*
X116398683Y-65243152D01*
X115874874Y-65243152D02*
X116398683Y-65909819D01*
X117160588Y-65862200D02*
X117065350Y-65909819D01*
X117065350Y-65909819D02*
X116874874Y-65909819D01*
X116874874Y-65909819D02*
X116779636Y-65862200D01*
X116779636Y-65862200D02*
X116732017Y-65766961D01*
X116732017Y-65766961D02*
X116732017Y-65386009D01*
X116732017Y-65386009D02*
X116779636Y-65290771D01*
X116779636Y-65290771D02*
X116874874Y-65243152D01*
X116874874Y-65243152D02*
X117065350Y-65243152D01*
X117065350Y-65243152D02*
X117160588Y-65290771D01*
X117160588Y-65290771D02*
X117208207Y-65386009D01*
X117208207Y-65386009D02*
X117208207Y-65481247D01*
X117208207Y-65481247D02*
X116732017Y-65576485D01*
X118065350Y-65909819D02*
X118065350Y-64909819D01*
X118065350Y-65862200D02*
X117970112Y-65909819D01*
X117970112Y-65909819D02*
X117779636Y-65909819D01*
X117779636Y-65909819D02*
X117684398Y-65862200D01*
X117684398Y-65862200D02*
X117636779Y-65814580D01*
X117636779Y-65814580D02*
X117589160Y-65719342D01*
X117589160Y-65719342D02*
X117589160Y-65433628D01*
X117589160Y-65433628D02*
X117636779Y-65338390D01*
X117636779Y-65338390D02*
X117684398Y-65290771D01*
X117684398Y-65290771D02*
X117779636Y-65243152D01*
X117779636Y-65243152D02*
X117970112Y-65243152D01*
X117970112Y-65243152D02*
X118065350Y-65290771D01*
X119160589Y-64909819D02*
X119493922Y-65909819D01*
X119493922Y-65909819D02*
X119827255Y-64909819D01*
X120303446Y-65909819D02*
X120208208Y-65862200D01*
X120208208Y-65862200D02*
X120160589Y-65814580D01*
X120160589Y-65814580D02*
X120112970Y-65719342D01*
X120112970Y-65719342D02*
X120112970Y-65433628D01*
X120112970Y-65433628D02*
X120160589Y-65338390D01*
X120160589Y-65338390D02*
X120208208Y-65290771D01*
X120208208Y-65290771D02*
X120303446Y-65243152D01*
X120303446Y-65243152D02*
X120446303Y-65243152D01*
X120446303Y-65243152D02*
X120541541Y-65290771D01*
X120541541Y-65290771D02*
X120589160Y-65338390D01*
X120589160Y-65338390D02*
X120636779Y-65433628D01*
X120636779Y-65433628D02*
X120636779Y-65719342D01*
X120636779Y-65719342D02*
X120589160Y-65814580D01*
X120589160Y-65814580D02*
X120541541Y-65862200D01*
X120541541Y-65862200D02*
X120446303Y-65909819D01*
X120446303Y-65909819D02*
X120303446Y-65909819D01*
X121208208Y-65909819D02*
X121112970Y-65862200D01*
X121112970Y-65862200D02*
X121065351Y-65766961D01*
X121065351Y-65766961D02*
X121065351Y-64909819D01*
X121446304Y-65243152D02*
X121827256Y-65243152D01*
X121589161Y-64909819D02*
X121589161Y-65766961D01*
X121589161Y-65766961D02*
X121636780Y-65862200D01*
X121636780Y-65862200D02*
X121732018Y-65909819D01*
X121732018Y-65909819D02*
X121827256Y-65909819D01*
X122589161Y-65909819D02*
X122589161Y-65386009D01*
X122589161Y-65386009D02*
X122541542Y-65290771D01*
X122541542Y-65290771D02*
X122446304Y-65243152D01*
X122446304Y-65243152D02*
X122255828Y-65243152D01*
X122255828Y-65243152D02*
X122160590Y-65290771D01*
X122589161Y-65862200D02*
X122493923Y-65909819D01*
X122493923Y-65909819D02*
X122255828Y-65909819D01*
X122255828Y-65909819D02*
X122160590Y-65862200D01*
X122160590Y-65862200D02*
X122112971Y-65766961D01*
X122112971Y-65766961D02*
X122112971Y-65671723D01*
X122112971Y-65671723D02*
X122160590Y-65576485D01*
X122160590Y-65576485D02*
X122255828Y-65528866D01*
X122255828Y-65528866D02*
X122493923Y-65528866D01*
X122493923Y-65528866D02*
X122589161Y-65481247D01*
X123493923Y-65243152D02*
X123493923Y-66052676D01*
X123493923Y-66052676D02*
X123446304Y-66147914D01*
X123446304Y-66147914D02*
X123398685Y-66195533D01*
X123398685Y-66195533D02*
X123303447Y-66243152D01*
X123303447Y-66243152D02*
X123160590Y-66243152D01*
X123160590Y-66243152D02*
X123065352Y-66195533D01*
X123493923Y-65862200D02*
X123398685Y-65909819D01*
X123398685Y-65909819D02*
X123208209Y-65909819D01*
X123208209Y-65909819D02*
X123112971Y-65862200D01*
X123112971Y-65862200D02*
X123065352Y-65814580D01*
X123065352Y-65814580D02*
X123017733Y-65719342D01*
X123017733Y-65719342D02*
X123017733Y-65433628D01*
X123017733Y-65433628D02*
X123065352Y-65338390D01*
X123065352Y-65338390D02*
X123112971Y-65290771D01*
X123112971Y-65290771D02*
X123208209Y-65243152D01*
X123208209Y-65243152D02*
X123398685Y-65243152D01*
X123398685Y-65243152D02*
X123493923Y-65290771D01*
X124351066Y-65862200D02*
X124255828Y-65909819D01*
X124255828Y-65909819D02*
X124065352Y-65909819D01*
X124065352Y-65909819D02*
X123970114Y-65862200D01*
X123970114Y-65862200D02*
X123922495Y-65766961D01*
X123922495Y-65766961D02*
X123922495Y-65386009D01*
X123922495Y-65386009D02*
X123970114Y-65290771D01*
X123970114Y-65290771D02*
X124065352Y-65243152D01*
X124065352Y-65243152D02*
X124255828Y-65243152D01*
X124255828Y-65243152D02*
X124351066Y-65290771D01*
X124351066Y-65290771D02*
X124398685Y-65386009D01*
X124398685Y-65386009D02*
X124398685Y-65481247D01*
X124398685Y-65481247D02*
X123922495Y-65576485D01*
X126160590Y-65909819D02*
X125827257Y-65433628D01*
X125589162Y-65909819D02*
X125589162Y-64909819D01*
X125589162Y-64909819D02*
X125970114Y-64909819D01*
X125970114Y-64909819D02*
X126065352Y-64957438D01*
X126065352Y-64957438D02*
X126112971Y-65005057D01*
X126112971Y-65005057D02*
X126160590Y-65100295D01*
X126160590Y-65100295D02*
X126160590Y-65243152D01*
X126160590Y-65243152D02*
X126112971Y-65338390D01*
X126112971Y-65338390D02*
X126065352Y-65386009D01*
X126065352Y-65386009D02*
X125970114Y-65433628D01*
X125970114Y-65433628D02*
X125589162Y-65433628D01*
X126970114Y-65862200D02*
X126874876Y-65909819D01*
X126874876Y-65909819D02*
X126684400Y-65909819D01*
X126684400Y-65909819D02*
X126589162Y-65862200D01*
X126589162Y-65862200D02*
X126541543Y-65766961D01*
X126541543Y-65766961D02*
X126541543Y-65386009D01*
X126541543Y-65386009D02*
X126589162Y-65290771D01*
X126589162Y-65290771D02*
X126684400Y-65243152D01*
X126684400Y-65243152D02*
X126874876Y-65243152D01*
X126874876Y-65243152D02*
X126970114Y-65290771D01*
X126970114Y-65290771D02*
X127017733Y-65386009D01*
X127017733Y-65386009D02*
X127017733Y-65481247D01*
X127017733Y-65481247D02*
X126541543Y-65576485D01*
X127874876Y-65243152D02*
X127874876Y-66052676D01*
X127874876Y-66052676D02*
X127827257Y-66147914D01*
X127827257Y-66147914D02*
X127779638Y-66195533D01*
X127779638Y-66195533D02*
X127684400Y-66243152D01*
X127684400Y-66243152D02*
X127541543Y-66243152D01*
X127541543Y-66243152D02*
X127446305Y-66195533D01*
X127874876Y-65862200D02*
X127779638Y-65909819D01*
X127779638Y-65909819D02*
X127589162Y-65909819D01*
X127589162Y-65909819D02*
X127493924Y-65862200D01*
X127493924Y-65862200D02*
X127446305Y-65814580D01*
X127446305Y-65814580D02*
X127398686Y-65719342D01*
X127398686Y-65719342D02*
X127398686Y-65433628D01*
X127398686Y-65433628D02*
X127446305Y-65338390D01*
X127446305Y-65338390D02*
X127493924Y-65290771D01*
X127493924Y-65290771D02*
X127589162Y-65243152D01*
X127589162Y-65243152D02*
X127779638Y-65243152D01*
X127779638Y-65243152D02*
X127874876Y-65290771D01*
X128779638Y-65243152D02*
X128779638Y-65909819D01*
X128351067Y-65243152D02*
X128351067Y-65766961D01*
X128351067Y-65766961D02*
X128398686Y-65862200D01*
X128398686Y-65862200D02*
X128493924Y-65909819D01*
X128493924Y-65909819D02*
X128636781Y-65909819D01*
X128636781Y-65909819D02*
X128732019Y-65862200D01*
X128732019Y-65862200D02*
X128779638Y-65814580D01*
X129398686Y-65909819D02*
X129303448Y-65862200D01*
X129303448Y-65862200D02*
X129255829Y-65766961D01*
X129255829Y-65766961D02*
X129255829Y-64909819D01*
X130208210Y-65909819D02*
X130208210Y-65386009D01*
X130208210Y-65386009D02*
X130160591Y-65290771D01*
X130160591Y-65290771D02*
X130065353Y-65243152D01*
X130065353Y-65243152D02*
X129874877Y-65243152D01*
X129874877Y-65243152D02*
X129779639Y-65290771D01*
X130208210Y-65862200D02*
X130112972Y-65909819D01*
X130112972Y-65909819D02*
X129874877Y-65909819D01*
X129874877Y-65909819D02*
X129779639Y-65862200D01*
X129779639Y-65862200D02*
X129732020Y-65766961D01*
X129732020Y-65766961D02*
X129732020Y-65671723D01*
X129732020Y-65671723D02*
X129779639Y-65576485D01*
X129779639Y-65576485D02*
X129874877Y-65528866D01*
X129874877Y-65528866D02*
X130112972Y-65528866D01*
X130112972Y-65528866D02*
X130208210Y-65481247D01*
X130541544Y-65243152D02*
X130922496Y-65243152D01*
X130684401Y-64909819D02*
X130684401Y-65766961D01*
X130684401Y-65766961D02*
X130732020Y-65862200D01*
X130732020Y-65862200D02*
X130827258Y-65909819D01*
X130827258Y-65909819D02*
X130922496Y-65909819D01*
X131398687Y-65909819D02*
X131303449Y-65862200D01*
X131303449Y-65862200D02*
X131255830Y-65814580D01*
X131255830Y-65814580D02*
X131208211Y-65719342D01*
X131208211Y-65719342D02*
X131208211Y-65433628D01*
X131208211Y-65433628D02*
X131255830Y-65338390D01*
X131255830Y-65338390D02*
X131303449Y-65290771D01*
X131303449Y-65290771D02*
X131398687Y-65243152D01*
X131398687Y-65243152D02*
X131541544Y-65243152D01*
X131541544Y-65243152D02*
X131636782Y-65290771D01*
X131636782Y-65290771D02*
X131684401Y-65338390D01*
X131684401Y-65338390D02*
X131732020Y-65433628D01*
X131732020Y-65433628D02*
X131732020Y-65719342D01*
X131732020Y-65719342D02*
X131684401Y-65814580D01*
X131684401Y-65814580D02*
X131636782Y-65862200D01*
X131636782Y-65862200D02*
X131541544Y-65909819D01*
X131541544Y-65909819D02*
X131398687Y-65909819D01*
X132160592Y-65909819D02*
X132160592Y-65243152D01*
X132160592Y-65433628D02*
X132208211Y-65338390D01*
X132208211Y-65338390D02*
X132255830Y-65290771D01*
X132255830Y-65290771D02*
X132351068Y-65243152D01*
X132351068Y-65243152D02*
X132446306Y-65243152D01*
X142073333Y-81734819D02*
X141740000Y-81258628D01*
X141501905Y-81734819D02*
X141501905Y-80734819D01*
X141501905Y-80734819D02*
X141882857Y-80734819D01*
X141882857Y-80734819D02*
X141978095Y-80782438D01*
X141978095Y-80782438D02*
X142025714Y-80830057D01*
X142025714Y-80830057D02*
X142073333Y-80925295D01*
X142073333Y-80925295D02*
X142073333Y-81068152D01*
X142073333Y-81068152D02*
X142025714Y-81163390D01*
X142025714Y-81163390D02*
X141978095Y-81211009D01*
X141978095Y-81211009D02*
X141882857Y-81258628D01*
X141882857Y-81258628D02*
X141501905Y-81258628D01*
X143025714Y-81734819D02*
X142454286Y-81734819D01*
X142740000Y-81734819D02*
X142740000Y-80734819D01*
X142740000Y-80734819D02*
X142644762Y-80877676D01*
X142644762Y-80877676D02*
X142549524Y-80972914D01*
X142549524Y-80972914D02*
X142454286Y-81020533D01*
X136421905Y-89354819D02*
X136421905Y-88354819D01*
X136421905Y-88354819D02*
X136660000Y-88354819D01*
X136660000Y-88354819D02*
X136802857Y-88402438D01*
X136802857Y-88402438D02*
X136898095Y-88497676D01*
X136898095Y-88497676D02*
X136945714Y-88592914D01*
X136945714Y-88592914D02*
X136993333Y-88783390D01*
X136993333Y-88783390D02*
X136993333Y-88926247D01*
X136993333Y-88926247D02*
X136945714Y-89116723D01*
X136945714Y-89116723D02*
X136898095Y-89211961D01*
X136898095Y-89211961D02*
X136802857Y-89307200D01*
X136802857Y-89307200D02*
X136660000Y-89354819D01*
X136660000Y-89354819D02*
X136421905Y-89354819D01*
X137945714Y-89354819D02*
X137374286Y-89354819D01*
X137660000Y-89354819D02*
X137660000Y-88354819D01*
X137660000Y-88354819D02*
X137564762Y-88497676D01*
X137564762Y-88497676D02*
X137469524Y-88592914D01*
X137469524Y-88592914D02*
X137374286Y-88640533D01*
X119313333Y-69844819D02*
X118837143Y-69844819D01*
X118837143Y-69844819D02*
X118837143Y-68844819D01*
X119646667Y-69844819D02*
X119646667Y-68844819D01*
X119646667Y-68844819D02*
X119980000Y-69559104D01*
X119980000Y-69559104D02*
X120313333Y-68844819D01*
X120313333Y-68844819D02*
X120313333Y-69844819D01*
X120694286Y-68844819D02*
X121360952Y-68844819D01*
X121360952Y-68844819D02*
X120932381Y-69844819D01*
X121884762Y-69273390D02*
X121789524Y-69225771D01*
X121789524Y-69225771D02*
X121741905Y-69178152D01*
X121741905Y-69178152D02*
X121694286Y-69082914D01*
X121694286Y-69082914D02*
X121694286Y-69035295D01*
X121694286Y-69035295D02*
X121741905Y-68940057D01*
X121741905Y-68940057D02*
X121789524Y-68892438D01*
X121789524Y-68892438D02*
X121884762Y-68844819D01*
X121884762Y-68844819D02*
X122075238Y-68844819D01*
X122075238Y-68844819D02*
X122170476Y-68892438D01*
X122170476Y-68892438D02*
X122218095Y-68940057D01*
X122218095Y-68940057D02*
X122265714Y-69035295D01*
X122265714Y-69035295D02*
X122265714Y-69082914D01*
X122265714Y-69082914D02*
X122218095Y-69178152D01*
X122218095Y-69178152D02*
X122170476Y-69225771D01*
X122170476Y-69225771D02*
X122075238Y-69273390D01*
X122075238Y-69273390D02*
X121884762Y-69273390D01*
X121884762Y-69273390D02*
X121789524Y-69321009D01*
X121789524Y-69321009D02*
X121741905Y-69368628D01*
X121741905Y-69368628D02*
X121694286Y-69463866D01*
X121694286Y-69463866D02*
X121694286Y-69654342D01*
X121694286Y-69654342D02*
X121741905Y-69749580D01*
X121741905Y-69749580D02*
X121789524Y-69797200D01*
X121789524Y-69797200D02*
X121884762Y-69844819D01*
X121884762Y-69844819D02*
X122075238Y-69844819D01*
X122075238Y-69844819D02*
X122170476Y-69797200D01*
X122170476Y-69797200D02*
X122218095Y-69749580D01*
X122218095Y-69749580D02*
X122265714Y-69654342D01*
X122265714Y-69654342D02*
X122265714Y-69463866D01*
X122265714Y-69463866D02*
X122218095Y-69368628D01*
X122218095Y-69368628D02*
X122170476Y-69321009D01*
X122170476Y-69321009D02*
X122075238Y-69273390D01*
X122884762Y-68844819D02*
X122980000Y-68844819D01*
X122980000Y-68844819D02*
X123075238Y-68892438D01*
X123075238Y-68892438D02*
X123122857Y-68940057D01*
X123122857Y-68940057D02*
X123170476Y-69035295D01*
X123170476Y-69035295D02*
X123218095Y-69225771D01*
X123218095Y-69225771D02*
X123218095Y-69463866D01*
X123218095Y-69463866D02*
X123170476Y-69654342D01*
X123170476Y-69654342D02*
X123122857Y-69749580D01*
X123122857Y-69749580D02*
X123075238Y-69797200D01*
X123075238Y-69797200D02*
X122980000Y-69844819D01*
X122980000Y-69844819D02*
X122884762Y-69844819D01*
X122884762Y-69844819D02*
X122789524Y-69797200D01*
X122789524Y-69797200D02*
X122741905Y-69749580D01*
X122741905Y-69749580D02*
X122694286Y-69654342D01*
X122694286Y-69654342D02*
X122646667Y-69463866D01*
X122646667Y-69463866D02*
X122646667Y-69225771D01*
X122646667Y-69225771D02*
X122694286Y-69035295D01*
X122694286Y-69035295D02*
X122741905Y-68940057D01*
X122741905Y-68940057D02*
X122789524Y-68892438D01*
X122789524Y-68892438D02*
X122884762Y-68844819D01*
X124122857Y-68844819D02*
X123646667Y-68844819D01*
X123646667Y-68844819D02*
X123599048Y-69321009D01*
X123599048Y-69321009D02*
X123646667Y-69273390D01*
X123646667Y-69273390D02*
X123741905Y-69225771D01*
X123741905Y-69225771D02*
X123980000Y-69225771D01*
X123980000Y-69225771D02*
X124075238Y-69273390D01*
X124075238Y-69273390D02*
X124122857Y-69321009D01*
X124122857Y-69321009D02*
X124170476Y-69416247D01*
X124170476Y-69416247D02*
X124170476Y-69654342D01*
X124170476Y-69654342D02*
X124122857Y-69749580D01*
X124122857Y-69749580D02*
X124075238Y-69797200D01*
X124075238Y-69797200D02*
X123980000Y-69844819D01*
X123980000Y-69844819D02*
X123741905Y-69844819D01*
X123741905Y-69844819D02*
X123646667Y-69797200D01*
X123646667Y-69797200D02*
X123599048Y-69749580D01*
X146986666Y-88354819D02*
X146986666Y-89069104D01*
X146986666Y-89069104D02*
X146939047Y-89211961D01*
X146939047Y-89211961D02*
X146843809Y-89307200D01*
X146843809Y-89307200D02*
X146700952Y-89354819D01*
X146700952Y-89354819D02*
X146605714Y-89354819D01*
X147415238Y-88450057D02*
X147462857Y-88402438D01*
X147462857Y-88402438D02*
X147558095Y-88354819D01*
X147558095Y-88354819D02*
X147796190Y-88354819D01*
X147796190Y-88354819D02*
X147891428Y-88402438D01*
X147891428Y-88402438D02*
X147939047Y-88450057D01*
X147939047Y-88450057D02*
X147986666Y-88545295D01*
X147986666Y-88545295D02*
X147986666Y-88640533D01*
X147986666Y-88640533D02*
X147939047Y-88783390D01*
X147939047Y-88783390D02*
X147367619Y-89354819D01*
X147367619Y-89354819D02*
X147986666Y-89354819D01*
X98726666Y-88354819D02*
X98726666Y-89069104D01*
X98726666Y-89069104D02*
X98679047Y-89211961D01*
X98679047Y-89211961D02*
X98583809Y-89307200D01*
X98583809Y-89307200D02*
X98440952Y-89354819D01*
X98440952Y-89354819D02*
X98345714Y-89354819D01*
X99726666Y-89354819D02*
X99155238Y-89354819D01*
X99440952Y-89354819D02*
X99440952Y-88354819D01*
X99440952Y-88354819D02*
X99345714Y-88497676D01*
X99345714Y-88497676D02*
X99250476Y-88592914D01*
X99250476Y-88592914D02*
X99155238Y-88640533D01*
X134453333Y-79099580D02*
X134405714Y-79147200D01*
X134405714Y-79147200D02*
X134262857Y-79194819D01*
X134262857Y-79194819D02*
X134167619Y-79194819D01*
X134167619Y-79194819D02*
X134024762Y-79147200D01*
X134024762Y-79147200D02*
X133929524Y-79051961D01*
X133929524Y-79051961D02*
X133881905Y-78956723D01*
X133881905Y-78956723D02*
X133834286Y-78766247D01*
X133834286Y-78766247D02*
X133834286Y-78623390D01*
X133834286Y-78623390D02*
X133881905Y-78432914D01*
X133881905Y-78432914D02*
X133929524Y-78337676D01*
X133929524Y-78337676D02*
X134024762Y-78242438D01*
X134024762Y-78242438D02*
X134167619Y-78194819D01*
X134167619Y-78194819D02*
X134262857Y-78194819D01*
X134262857Y-78194819D02*
X134405714Y-78242438D01*
X134405714Y-78242438D02*
X134453333Y-78290057D01*
X134834286Y-78290057D02*
X134881905Y-78242438D01*
X134881905Y-78242438D02*
X134977143Y-78194819D01*
X134977143Y-78194819D02*
X135215238Y-78194819D01*
X135215238Y-78194819D02*
X135310476Y-78242438D01*
X135310476Y-78242438D02*
X135358095Y-78290057D01*
X135358095Y-78290057D02*
X135405714Y-78385295D01*
X135405714Y-78385295D02*
X135405714Y-78480533D01*
X135405714Y-78480533D02*
X135358095Y-78623390D01*
X135358095Y-78623390D02*
X134786667Y-79194819D01*
X134786667Y-79194819D02*
X135405714Y-79194819D01*
X114133333Y-81639580D02*
X114085714Y-81687200D01*
X114085714Y-81687200D02*
X113942857Y-81734819D01*
X113942857Y-81734819D02*
X113847619Y-81734819D01*
X113847619Y-81734819D02*
X113704762Y-81687200D01*
X113704762Y-81687200D02*
X113609524Y-81591961D01*
X113609524Y-81591961D02*
X113561905Y-81496723D01*
X113561905Y-81496723D02*
X113514286Y-81306247D01*
X113514286Y-81306247D02*
X113514286Y-81163390D01*
X113514286Y-81163390D02*
X113561905Y-80972914D01*
X113561905Y-80972914D02*
X113609524Y-80877676D01*
X113609524Y-80877676D02*
X113704762Y-80782438D01*
X113704762Y-80782438D02*
X113847619Y-80734819D01*
X113847619Y-80734819D02*
X113942857Y-80734819D01*
X113942857Y-80734819D02*
X114085714Y-80782438D01*
X114085714Y-80782438D02*
X114133333Y-80830057D01*
X115085714Y-81734819D02*
X114514286Y-81734819D01*
X114800000Y-81734819D02*
X114800000Y-80734819D01*
X114800000Y-80734819D02*
X114704762Y-80877676D01*
X114704762Y-80877676D02*
X114609524Y-80972914D01*
X114609524Y-80972914D02*
X114514286Y-81020533D01*
D11*
%TO.C,R1*%
X139700000Y-74700000D02*
X139700000Y-75470000D01*
X139700000Y-82780000D02*
X139700000Y-82010000D01*
X138330000Y-82010000D02*
X141070000Y-82010000D01*
X141070000Y-75470000D02*
X138330000Y-75470000D01*
X141070000Y-82010000D02*
X141070000Y-75470000D01*
X138330000Y-75470000D02*
X138330000Y-82010000D01*
%TO.C,D1*%
X130790000Y-84815000D02*
X130790000Y-87905000D01*
X130790000Y-87904830D02*
G75*
G03*
X136340000Y-86359538I2560000J1544830D01*
G01*
X136339999Y-86360462D02*
G75*
G03*
X130790001Y-84815170I-2989999J462D01*
G01*
X135850000Y-86360000D02*
G75*
G03*
X135850000Y-86360000I-2500000J0D01*
G01*
%TO.C,LM7805*%
X116800000Y-70390000D02*
X127040000Y-70390000D01*
X120070000Y-70390000D02*
X120070000Y-71900000D01*
X123771000Y-70390000D02*
X123771000Y-71900000D01*
X116800000Y-70390000D02*
X116800000Y-75031000D01*
X116800000Y-75031000D02*
X127040000Y-75031000D01*
X127040000Y-70390000D02*
X127040000Y-75031000D01*
X116800000Y-71900000D02*
X127040000Y-71900000D01*
%TO.C,J2*%
X152090000Y-71070000D02*
X152090000Y-86420000D01*
X143450000Y-86420000D02*
X143450000Y-71060000D01*
X152390000Y-70760000D02*
X152390000Y-71760000D01*
X143450000Y-71060000D02*
X152090000Y-71060000D01*
X145220000Y-77070000D02*
X145220000Y-80390000D01*
X145220000Y-72040000D02*
X145220000Y-72790000D01*
X152090000Y-86420000D02*
X143450000Y-86420000D01*
X152390000Y-70760000D02*
X151390000Y-70760000D01*
X145220000Y-84710000D02*
X145220000Y-85460000D01*
X145220000Y-85460000D02*
X150520000Y-85460000D01*
X150520000Y-72040000D02*
X145220000Y-72040000D01*
X150520000Y-85460000D02*
X150520000Y-72040000D01*
X145220000Y-72790000D02*
G75*
G03*
X145220709Y-77070696I2100000J-2140000D01*
G01*
X145220000Y-80390000D02*
G75*
G03*
X145219478Y-84709492I2100000J-2160000D01*
G01*
%TO.C,J1*%
X94740000Y-86410000D02*
X94740000Y-71060000D01*
X103380000Y-71060000D02*
X103380000Y-86420000D01*
X94440000Y-86720000D02*
X94440000Y-85720000D01*
X103380000Y-86420000D02*
X94740000Y-86420000D01*
X101610000Y-80410000D02*
X101610000Y-77090000D01*
X101610000Y-85440000D02*
X101610000Y-84690000D01*
X94740000Y-71060000D02*
X103380000Y-71060000D01*
X94440000Y-86720000D02*
X95440000Y-86720000D01*
X101610000Y-72770000D02*
X101610000Y-72020000D01*
X101610000Y-72020000D02*
X96310000Y-72020000D01*
X96310000Y-85440000D02*
X101610000Y-85440000D01*
X96310000Y-72020000D02*
X96310000Y-85440000D01*
X101610000Y-84690000D02*
G75*
G03*
X101609291Y-80409304I-2100000J2140000D01*
G01*
X101610000Y-77090000D02*
G75*
G03*
X101610522Y-72770508I-2100000J2160000D01*
G01*
%TO.C,C2*%
X135990000Y-72290000D02*
X133250000Y-72290000D01*
X135990000Y-72290000D02*
X135990000Y-77530000D01*
X135990000Y-77530000D02*
X133250000Y-77530000D01*
X133250000Y-72290000D02*
X133250000Y-77530000D01*
%TO.C,C1*%
X109429000Y-77700000D02*
X109429000Y-76392000D01*
X108549000Y-80439000D02*
X108549000Y-79780000D01*
X108269000Y-80059000D02*
X108269000Y-79780000D01*
X108309000Y-80123000D02*
X108309000Y-79780000D01*
X110030000Y-77700000D02*
X110030000Y-76204000D01*
X109229000Y-80987000D02*
X109229000Y-79780000D01*
X110510000Y-81320000D02*
X110510000Y-76160000D01*
X109349000Y-77700000D02*
X109349000Y-76430000D01*
X108669000Y-77700000D02*
X108669000Y-76914000D01*
X109069000Y-77700000D02*
X109069000Y-76591000D01*
X109789000Y-77700000D02*
X109789000Y-76260000D01*
X109029000Y-77700000D02*
X109029000Y-76618000D01*
X108349000Y-80183000D02*
X108349000Y-79780000D01*
X110430000Y-81319000D02*
X110430000Y-76161000D01*
X108909000Y-80775000D02*
X108909000Y-79780000D01*
X107949000Y-79258000D02*
X107949000Y-78222000D01*
X109709000Y-81195000D02*
X109709000Y-79780000D01*
X109189000Y-80964000D02*
X109189000Y-79780000D01*
X109389000Y-77700000D02*
X109389000Y-76411000D01*
X108589000Y-77700000D02*
X108589000Y-76997000D01*
X108869000Y-77700000D02*
X108869000Y-76736000D01*
X108269000Y-77700000D02*
X108269000Y-77421000D01*
X108229000Y-77700000D02*
X108229000Y-77489000D01*
X108709000Y-77700000D02*
X108709000Y-76876000D01*
X109950000Y-77700000D02*
X109950000Y-76220000D01*
X110030000Y-81276000D02*
X110030000Y-79780000D01*
X109789000Y-81220000D02*
X109789000Y-79780000D01*
X109589000Y-81154000D02*
X109589000Y-79780000D01*
X109830000Y-77700000D02*
X109830000Y-76249000D01*
X107989000Y-79417000D02*
X107989000Y-78063000D01*
X109109000Y-80915000D02*
X109109000Y-79780000D01*
X109749000Y-77700000D02*
X109749000Y-76272000D01*
X108629000Y-80525000D02*
X108629000Y-79780000D01*
X108349000Y-77700000D02*
X108349000Y-77297000D01*
X108789000Y-80677000D02*
X108789000Y-79780000D01*
X109069000Y-80889000D02*
X109069000Y-79780000D01*
X109389000Y-81069000D02*
X109389000Y-79780000D01*
X110150000Y-77700000D02*
X110150000Y-76184000D01*
X108309000Y-77700000D02*
X108309000Y-77357000D01*
X109910000Y-81251000D02*
X109910000Y-79780000D01*
X108149000Y-79838000D02*
X108149000Y-77642000D01*
X108589000Y-80483000D02*
X108589000Y-79780000D01*
X110270000Y-77700000D02*
X110270000Y-76171000D01*
X109990000Y-77700000D02*
X109990000Y-76212000D01*
X110070000Y-81283000D02*
X110070000Y-79780000D01*
X110350000Y-81316000D02*
X110350000Y-76164000D01*
X108989000Y-80835000D02*
X108989000Y-79780000D01*
X109269000Y-77700000D02*
X109269000Y-76472000D01*
X109509000Y-81122000D02*
X109509000Y-79780000D01*
X109870000Y-77700000D02*
X109870000Y-76239000D01*
X109990000Y-81268000D02*
X109990000Y-79780000D01*
X110470000Y-81320000D02*
X110470000Y-76160000D01*
X109469000Y-81105000D02*
X109469000Y-79780000D01*
X108509000Y-77700000D02*
X108509000Y-77087000D01*
X109870000Y-81241000D02*
X109870000Y-79780000D01*
X110190000Y-81301000D02*
X110190000Y-79780000D01*
X109149000Y-80940000D02*
X109149000Y-79780000D01*
X108909000Y-77700000D02*
X108909000Y-76705000D01*
X108669000Y-80566000D02*
X108669000Y-79780000D01*
X110110000Y-77700000D02*
X110110000Y-76190000D01*
X109669000Y-81182000D02*
X109669000Y-79780000D01*
X109950000Y-81260000D02*
X109950000Y-79780000D01*
X110110000Y-81290000D02*
X110110000Y-79780000D01*
X109109000Y-77700000D02*
X109109000Y-76565000D01*
X109549000Y-77700000D02*
X109549000Y-76342000D01*
X110390000Y-81318000D02*
X110390000Y-76162000D01*
X110310000Y-81313000D02*
X110310000Y-76167000D01*
X110270000Y-81309000D02*
X110270000Y-79780000D01*
X109910000Y-77700000D02*
X109910000Y-76229000D01*
X108629000Y-77700000D02*
X108629000Y-76955000D01*
X109309000Y-81030000D02*
X109309000Y-79780000D01*
X108949000Y-80805000D02*
X108949000Y-79780000D01*
X109469000Y-77700000D02*
X109469000Y-76375000D01*
X108509000Y-80393000D02*
X108509000Y-79780000D01*
X110150000Y-81296000D02*
X110150000Y-79780000D01*
X108789000Y-77700000D02*
X108789000Y-76803000D01*
X109669000Y-77700000D02*
X109669000Y-76298000D01*
X108949000Y-77700000D02*
X108949000Y-76675000D01*
X109229000Y-77700000D02*
X109229000Y-76493000D01*
X108749000Y-77700000D02*
X108749000Y-76839000D01*
X109709000Y-77700000D02*
X109709000Y-76285000D01*
X109189000Y-77700000D02*
X109189000Y-76516000D01*
X109549000Y-81138000D02*
X109549000Y-79780000D01*
X113314775Y-80215000D02*
X112814775Y-80215000D01*
X108469000Y-77700000D02*
X108469000Y-77135000D01*
X108029000Y-79545000D02*
X108029000Y-77935000D01*
X108229000Y-79991000D02*
X108229000Y-79780000D01*
X109629000Y-77700000D02*
X109629000Y-76312000D01*
X110230000Y-77700000D02*
X110230000Y-76175000D01*
X107909000Y-79024000D02*
X107909000Y-78456000D01*
X109629000Y-81168000D02*
X109629000Y-79780000D01*
X108109000Y-79751000D02*
X108109000Y-77729000D01*
X109509000Y-77700000D02*
X109509000Y-76358000D01*
X108869000Y-80744000D02*
X108869000Y-79780000D01*
X108389000Y-80240000D02*
X108389000Y-79780000D01*
X108189000Y-79918000D02*
X108189000Y-77562000D01*
X109029000Y-80862000D02*
X109029000Y-79780000D01*
X109149000Y-77700000D02*
X109149000Y-76540000D01*
X109589000Y-77700000D02*
X109589000Y-76326000D01*
X113064775Y-80465000D02*
X113064775Y-79965000D01*
X109429000Y-81088000D02*
X109429000Y-79780000D01*
X108829000Y-80711000D02*
X108829000Y-79780000D01*
X109830000Y-81231000D02*
X109830000Y-79780000D01*
X108989000Y-77700000D02*
X108989000Y-76645000D01*
X110190000Y-77700000D02*
X110190000Y-76179000D01*
X109309000Y-77700000D02*
X109309000Y-76450000D01*
X109269000Y-81008000D02*
X109269000Y-79780000D01*
X108429000Y-80294000D02*
X108429000Y-79780000D01*
X109349000Y-81050000D02*
X109349000Y-79780000D01*
X108429000Y-77700000D02*
X108429000Y-77186000D01*
X108069000Y-79655000D02*
X108069000Y-77825000D01*
X108829000Y-77700000D02*
X108829000Y-76769000D01*
X110230000Y-81305000D02*
X110230000Y-79780000D01*
X108389000Y-77700000D02*
X108389000Y-77240000D01*
X108749000Y-80641000D02*
X108749000Y-79780000D01*
X110070000Y-77700000D02*
X110070000Y-76197000D01*
X108469000Y-80345000D02*
X108469000Y-79780000D01*
X109749000Y-81208000D02*
X109749000Y-79780000D01*
X108549000Y-77700000D02*
X108549000Y-77041000D01*
X108709000Y-80604000D02*
X108709000Y-79780000D01*
X113130000Y-78740000D02*
G75*
G03*
X113130000Y-78740000I-2620000J0D01*
G01*
%TD*%
M02*
